{
	"asset":{
		"generator":"Khronos glTF Blender I/O v5.0.21",
		"version":"2.0"
	},
	"scene":0,
	"scenes":[
		{
			"name":"Scene",
			"nodes":[
				0,
				3,
				6,
				9,
				12,
				13,
				14,
				15,
				16,
				17
			]
		}
	],
	"nodes":[
		{
			"mesh":0,
			"name":"B\u00e9zierCurve",
			"translation":[
				1.1465404033660889,
				1.8386268615722656,
				-2.4361116886138916
			]
		},
		{
			"mesh":1,
			"name":"Button_01",
			"rotation":[
				-0.47864654660224915,
				-0.5204781889915466,
				0.478646457195282,
				0.5204780697822571
			],
			"scale":[
				0.09987141937017441,
				0.05157710239291191,
				0.1135910227894783
			],
			"translation":[
				8.303645699925255e-07,
				0.0032363049685955048,
				-0.038578540086746216
			]
		},
		{
			"children":[
				1
			],
			"name":"Bone",
			"rotation":[
				0.4786466360092163,
				0.5204781293869019,
				-0.47864654660224915,
				0.5204781889915466
			]
		},
		{
			"children":[
				2
			],
			"name":"Armature",
			"translation":[
				1.1465404033660889,
				2.124126672744751,
				4.521701812744141
			]
		},
		{
			"mesh":2,
			"name":"Button_02",
			"rotation":[
				-0.48216038942337036,
				-0.5172248482704163,
				0.4751107096672058,
				0.5237076282501221
			],
			"scale":[
				0.09987138211727142,
				0.05157709866762161,
				0.1135910153388977
			],
			"translation":[
				3.4389086067676544e-07,
				-5.792826414108276e-07,
				3.9943012097864994e-07
			]
		},
		{
			"children":[
				4
			],
			"name":"Bone",
			"rotation":[
				0.48216044902801514,
				0.5172248482704163,
				-0.4751107096672058,
				0.5237076282501221
			],
			"scale":[
				1,
				1.0000001192092896,
				1
			],
			"translation":[
				0,
				0,
				-0.04216575622558594
			]
		},
		{
			"children":[
				5
			],
			"name":"Armature.001",
			"translation":[
				1.1465404033660889,
				2.124126672744751,
				1.7744941711425781
			]
		},
		{
			"mesh":3,
			"name":"Button_03",
			"rotation":[
				-0.47864654660224915,
				-0.5204781889915466,
				0.478646457195282,
				0.5204780697822571
			],
			"scale":[
				0.09987141937017441,
				0.05157710239291191,
				0.1135910227894783
			],
			"translation":[
				-4.875500962953083e-07,
				-4.6549143917218316e-07,
				1.6037483874242753e-07
			]
		},
		{
			"children":[
				7
			],
			"name":"Bone",
			"rotation":[
				0.4786466360092163,
				0.5204781293869019,
				-0.47864654660224915,
				0.5204781889915466
			],
			"translation":[
				0,
				0,
				0.45436549186706543
			]
		},
		{
			"children":[
				8
			],
			"name":"Armature.002",
			"translation":[
				1.1465404033660889,
				2.124126672744751,
				-1.5114104747772217
			]
		},
		{
			"mesh":4,
			"name":"Button_04",
			"rotation":[
				-0.47864654660224915,
				-0.5204781889915466,
				0.4786464273929596,
				0.5204780697822571
			],
			"scale":[
				0.09987141937017441,
				0.05157710239291191,
				0.1135910227894783
			],
			"translation":[
				-1.2212024103064323e-06,
				-2.984369587011315e-07,
				2.009450099649257e-07
			]
		},
		{
			"children":[
				10
			],
			"name":"Bone",
			"rotation":[
				0.4786466360092163,
				0.5204781293869019,
				-0.47864651679992676,
				0.5204781889915466
			],
			"translation":[
				0,
				0,
				0.4607725143432617
			]
		},
		{
			"children":[
				11
			],
			"name":"Armature.003",
			"translation":[
				1.1465404033660889,
				2.124126672744751,
				-4.307190895080566
			]
		},
		{
			"mesh":5,
			"name":"Projector",
			"rotation":[
				0,
				-0.1929163932800293,
				0,
				0.9812152981758118
			],
			"scale":[
				0.022808736190199852,
				0.022808734327554703,
				0.022808736190199852
			],
			"translation":[
				-6.412821292877197,
				2.967475175857544,
				-24.127689361572266
			]
		},
		{
			"mesh":6,
			"name":"Shield",
			"rotation":[
				0,
				-0.1929163932800293,
				0,
				0.9812152981758118
			],
			"scale":[
				0.022808736190199852,
				0.022808734327554703,
				0.022808736190199852
			],
			"translation":[
				-6.412821292877197,
				2.967475175857544,
				-24.127689361572266
			]
		},
		{
			"mesh":7,
			"name":"leg.001",
			"rotation":[
				0,
				0.08736693114042282,
				0,
				0.9961763024330139
			],
			"scale":[
				0.002518004970625043,
				0.004999999888241291,
				0.004999999888241291
			],
			"translation":[
				-5.727834701538086,
				0.9846508502960205,
				-20.914466857910156
			]
		},
		{
			"mesh":8,
			"name":"Player",
			"translation":[
				-3.646662473678589,
				2.0665547847747803,
				0.32717037200927734
			]
		},
		{
			"mesh":9,
			"name":"screen",
			"scale":[
				-0.007445482537150383,
				-0.007445482537150383,
				-0.057186197489500046
			],
			"translation":[
				0.34351497888565063,
				4.003434181213379,
				0.32539093494415283
			]
		}
	],
	"animations":[
		{
			"channels":[
				{
					"sampler":0,
					"target":{
						"node":2,
						"path":"translation"
					}
				},
				{
					"sampler":1,
					"target":{
						"node":2,
						"path":"rotation"
					}
				},
				{
					"sampler":2,
					"target":{
						"node":2,
						"path":"scale"
					}
				}
			],
			"name":"Play_btn1",
			"samplers":[
				{
					"input":37,
					"interpolation":"STEP",
					"output":38
				},
				{
					"input":39,
					"interpolation":"LINEAR",
					"output":40
				},
				{
					"input":37,
					"interpolation":"STEP",
					"output":41
				}
			]
		},
		{
			"channels":[
				{
					"sampler":0,
					"target":{
						"node":5,
						"path":"translation"
					}
				},
				{
					"sampler":1,
					"target":{
						"node":5,
						"path":"rotation"
					}
				},
				{
					"sampler":2,
					"target":{
						"node":5,
						"path":"scale"
					}
				}
			],
			"name":"Play_btn2",
			"samplers":[
				{
					"input":37,
					"interpolation":"STEP",
					"output":42
				},
				{
					"input":39,
					"interpolation":"LINEAR",
					"output":43
				},
				{
					"input":37,
					"interpolation":"STEP",
					"output":44
				}
			]
		},
		{
			"channels":[
				{
					"sampler":0,
					"target":{
						"node":8,
						"path":"translation"
					}
				},
				{
					"sampler":1,
					"target":{
						"node":8,
						"path":"rotation"
					}
				},
				{
					"sampler":2,
					"target":{
						"node":8,
						"path":"scale"
					}
				}
			],
			"name":"Play_btn3",
			"samplers":[
				{
					"input":37,
					"interpolation":"STEP",
					"output":45
				},
				{
					"input":39,
					"interpolation":"LINEAR",
					"output":46
				},
				{
					"input":37,
					"interpolation":"STEP",
					"output":41
				}
			]
		},
		{
			"channels":[
				{
					"sampler":0,
					"target":{
						"node":11,
						"path":"translation"
					}
				},
				{
					"sampler":1,
					"target":{
						"node":11,
						"path":"rotation"
					}
				},
				{
					"sampler":2,
					"target":{
						"node":11,
						"path":"scale"
					}
				}
			],
			"name":"Play_btn4",
			"samplers":[
				{
					"input":37,
					"interpolation":"STEP",
					"output":47
				},
				{
					"input":39,
					"interpolation":"LINEAR",
					"output":48
				},
				{
					"input":37,
					"interpolation":"STEP",
					"output":49
				}
			]
		}
	],
	"meshes":[
		{
			"name":"B\u00e9zierCurve",
			"primitives":[
				{
					"attributes":{
						"POSITION":0,
						"NORMAL":1,
						"TEXCOORD_0":2
					},
					"indices":3
				}
			]
		},
		{
			"name":"Cube.002",
			"primitives":[
				{
					"attributes":{
						"POSITION":4,
						"NORMAL":5,
						"TEXCOORD_0":6
					},
					"indices":7
				}
			]
		},
		{
			"name":"Cube.003",
			"primitives":[
				{
					"attributes":{
						"POSITION":8,
						"NORMAL":9,
						"TEXCOORD_0":10
					},
					"indices":7
				}
			]
		},
		{
			"name":"Cube.004",
			"primitives":[
				{
					"attributes":{
						"POSITION":11,
						"NORMAL":12,
						"TEXCOORD_0":13
					},
					"indices":7
				}
			]
		},
		{
			"name":"Cube.005",
			"primitives":[
				{
					"attributes":{
						"POSITION":14,
						"NORMAL":15,
						"TEXCOORD_0":16
					},
					"indices":7
				}
			]
		},
		{
			"name":"Sphere",
			"primitives":[
				{
					"attributes":{
						"POSITION":17,
						"NORMAL":18,
						"TEXCOORD_0":19
					},
					"indices":20
				}
			]
		},
		{
			"name":"Sphere.001",
			"primitives":[
				{
					"attributes":{
						"POSITION":21,
						"NORMAL":22,
						"TEXCOORD_0":23
					},
					"indices":24
				}
			]
		},
		{
			"name":"Cube.013",
			"primitives":[
				{
					"attributes":{
						"POSITION":25,
						"NORMAL":26,
						"TEXCOORD_0":27
					},
					"indices":28
				}
			]
		},
		{
			"name":"Cube.001",
			"primitives":[
				{
					"attributes":{
						"POSITION":29,
						"NORMAL":30,
						"TEXCOORD_0":31
					},
					"indices":32
				}
			]
		},
		{
			"name":"Cube.014",
			"primitives":[
				{
					"attributes":{
						"POSITION":33,
						"NORMAL":34,
						"TEXCOORD_0":35
					},
					"indices":36
				}
			]
		}
	],
	"accessors":[
		{
			"bufferView":0,
			"componentType":5126,
			"count":1067,
			"max":[
				1.409153699874878,
				-0.8978234529495239,
				14.758652687072754
			],
			"min":[
				-21.122461318969727,
				-1.8502085208892822,
				-21.869396209716797
			],
			"type":"VEC3"
		},
		{
			"bufferView":1,
			"componentType":5126,
			"count":1067,
			"type":"VEC3"
		},
		{
			"bufferView":2,
			"componentType":5126,
			"count":1067,
			"type":"VEC2"
		},
		{
			"bufferView":3,
			"componentType":5123,
			"count":5760,
			"type":"SCALAR"
		},
		{
			"bufferView":4,
			"componentType":5126,
			"count":562,
			"max":[
				33.04248809814453,
				22.014423370361328,
				11.66029167175293
			],
			"min":[
				-2.016753569478169e-06,
				-12.412169456481934,
				-11.66029167175293
			],
			"type":"VEC3"
		},
		{
			"bufferView":5,
			"componentType":5126,
			"count":562,
			"type":"VEC3"
		},
		{
			"bufferView":6,
			"componentType":5126,
			"count":562,
			"type":"VEC2"
		},
		{
			"bufferView":7,
			"componentType":5123,
			"count":2988,
			"type":"SCALAR"
		},
		{
			"bufferView":8,
			"componentType":5126,
			"count":562,
			"max":[
				33.04248809814453,
				22.765029907226562,
				11.660293579101562
			],
			"min":[
				-1.0940493666566908e-07,
				-11.6615629196167,
				-11.660289764404297
			],
			"type":"VEC3"
		},
		{
			"bufferView":9,
			"componentType":5126,
			"count":562,
			"type":"VEC3"
		},
		{
			"bufferView":10,
			"componentType":5126,
			"count":562,
			"type":"VEC2"
		},
		{
			"bufferView":11,
			"componentType":5126,
			"count":562,
			"max":[
				33.04248809814453,
				22.765029907226562,
				11.660285949707031
			],
			"min":[
				-1.0940493666566908e-07,
				-11.6615629196167,
				-11.660293579101562
			],
			"type":"VEC3"
		},
		{
			"bufferView":12,
			"componentType":5126,
			"count":562,
			"type":"VEC3"
		},
		{
			"bufferView":13,
			"componentType":5126,
			"count":562,
			"type":"VEC2"
		},
		{
			"bufferView":14,
			"componentType":5126,
			"count":562,
			"max":[
				33.04248809814453,
				22.765029907226562,
				11.660285949707031
			],
			"min":[
				-1.0940493666566908e-07,
				-11.6615629196167,
				-11.660301208496094
			],
			"type":"VEC3"
		},
		{
			"bufferView":15,
			"componentType":5126,
			"count":562,
			"type":"VEC3"
		},
		{
			"bufferView":16,
			"componentType":5126,
			"count":562,
			"type":"VEC2"
		},
		{
			"bufferView":17,
			"componentType":5126,
			"count":3424,
			"max":[
				98.69255828857422,
				79.21253967285156,
				99.03414154052734
			],
			"min":[
				-98.69255828857422,
				-92.3879623413086,
				-99.03414916992188
			],
			"type":"VEC3"
		},
		{
			"bufferView":18,
			"componentType":5126,
			"count":3424,
			"type":"VEC3"
		},
		{
			"bufferView":19,
			"componentType":5126,
			"count":3424,
			"type":"VEC2"
		},
		{
			"bufferView":20,
			"componentType":5123,
			"count":19968,
			"type":"SCALAR"
		},
		{
			"bufferView":21,
			"componentType":5126,
			"count":6220,
			"max":[
				97.77780151367188,
				72.31076049804688,
				98.22270202636719
			],
			"min":[
				-97.77780151367188,
				-97.1133804321289,
				-98.22270202636719
			],
			"type":"VEC3"
		},
		{
			"bufferView":22,
			"componentType":5126,
			"count":6220,
			"type":"VEC3"
		},
		{
			"bufferView":23,
			"componentType":5126,
			"count":6220,
			"type":"VEC2"
		},
		{
			"bufferView":24,
			"componentType":5123,
			"count":36264,
			"type":"SCALAR"
		},
		{
			"bufferView":25,
			"componentType":5126,
			"count":6136,
			"max":[
				2078.935791015625,
				476.3793640136719,
				517.4859619140625
			],
			"min":[
				-2170.450927734375,
				-199.224609375,
				-1830.8468017578125
			],
			"type":"VEC3"
		},
		{
			"bufferView":26,
			"componentType":5126,
			"count":6136,
			"type":"VEC3"
		},
		{
			"bufferView":27,
			"componentType":5126,
			"count":6136,
			"type":"VEC2"
		},
		{
			"bufferView":28,
			"componentType":5123,
			"count":14208,
			"type":"SCALAR"
		},
		{
			"bufferView":29,
			"componentType":5126,
			"count":2760,
			"max":[
				8.654670715332031,
				1.9551700353622437,
				6.928030490875244
			],
			"min":[
				-8.046478271484375,
				-2.063323497772217,
				-6.928030490875244
			],
			"type":"VEC3"
		},
		{
			"bufferView":30,
			"componentType":5126,
			"count":2760,
			"type":"VEC3"
		},
		{
			"bufferView":31,
			"componentType":5126,
			"count":2760,
			"type":"VEC2"
		},
		{
			"bufferView":32,
			"componentType":5123,
			"count":14970,
			"type":"SCALAR"
		},
		{
			"bufferView":33,
			"componentType":5126,
			"count":1016,
			"max":[
				246.2869415283203,
				99.85029602050781,
				106.58330535888672
			],
			"min":[
				-100,
				-124.53089904785156,
				-106.58330535888672
			],
			"type":"VEC3"
		},
		{
			"bufferView":34,
			"componentType":5126,
			"count":1016,
			"type":"VEC3"
		},
		{
			"bufferView":35,
			"componentType":5126,
			"count":1016,
			"type":"VEC2"
		},
		{
			"bufferView":36,
			"componentType":5123,
			"count":1554,
			"type":"SCALAR"
		},
		{
			"bufferView":37,
			"componentType":5126,
			"count":2,
			"max":[
				0.3333333333333333
			],
			"min":[
				0
			],
			"type":"SCALAR"
		},
		{
			"bufferView":38,
			"componentType":5126,
			"count":2,
			"type":"VEC3"
		},
		{
			"bufferView":39,
			"componentType":5126,
			"count":9,
			"max":[
				0.3333333333333333
			],
			"min":[
				0
			],
			"type":"SCALAR"
		},
		{
			"bufferView":40,
			"componentType":5126,
			"count":9,
			"type":"VEC4"
		},
		{
			"bufferView":41,
			"componentType":5126,
			"count":2,
			"type":"VEC3"
		},
		{
			"bufferView":42,
			"componentType":5126,
			"count":2,
			"type":"VEC3"
		},
		{
			"bufferView":43,
			"componentType":5126,
			"count":9,
			"type":"VEC4"
		},
		{
			"bufferView":44,
			"componentType":5126,
			"count":2,
			"type":"VEC3"
		},
		{
			"bufferView":45,
			"componentType":5126,
			"count":2,
			"type":"VEC3"
		},
		{
			"bufferView":46,
			"componentType":5126,
			"count":9,
			"type":"VEC4"
		},
		{
			"bufferView":47,
			"componentType":5126,
			"count":2,
			"type":"VEC3"
		},
		{
			"bufferView":48,
			"componentType":5126,
			"count":9,
			"type":"VEC4"
		},
		{
			"bufferView":49,
			"componentType":5126,
			"count":2,
			"type":"VEC3"
		}
	],
	"bufferViews":[
		{
			"buffer":0,
			"byteLength":12804,
			"byteOffset":0,
			"target":34962
		},
		{
			"buffer":0,
			"byteLength":12804,
			"byteOffset":12804,
			"target":34962
		},
		{
			"buffer":0,
			"byteLength":8536,
			"byteOffset":25608,
			"target":34962
		},
		{
			"buffer":0,
			"byteLength":11520,
			"byteOffset":34144,
			"target":34963
		},
		{
			"buffer":0,
			"byteLength":6744,
			"byteOffset":45664,
			"target":34962
		},
		{
			"buffer":0,
			"byteLength":6744,
			"byteOffset":52408,
			"target":34962
		},
		{
			"buffer":0,
			"byteLength":4496,
			"byteOffset":59152,
			"target":34962
		},
		{
			"buffer":0,
			"byteLength":5976,
			"byteOffset":63648,
			"target":34963
		},
		{
			"buffer":0,
			"byteLength":6744,
			"byteOffset":69624,
			"target":34962
		},
		{
			"buffer":0,
			"byteLength":6744,
			"byteOffset":76368,
			"target":34962
		},
		{
			"buffer":0,
			"byteLength":4496,
			"byteOffset":83112,
			"target":34962
		},
		{
			"buffer":0,
			"byteLength":6744,
			"byteOffset":87608,
			"target":34962
		},
		{
			"buffer":0,
			"byteLength":6744,
			"byteOffset":94352,
			"target":34962
		},
		{
			"buffer":0,
			"byteLength":4496,
			"byteOffset":101096,
			"target":34962
		},
		{
			"buffer":0,
			"byteLength":6744,
			"byteOffset":105592,
			"target":34962
		},
		{
			"buffer":0,
			"byteLength":6744,
			"byteOffset":112336,
			"target":34962
		},
		{
			"buffer":0,
			"byteLength":4496,
			"byteOffset":119080,
			"target":34962
		},
		{
			"buffer":0,
			"byteLength":41088,
			"byteOffset":123576,
			"target":34962
		},
		{
			"buffer":0,
			"byteLength":41088,
			"byteOffset":164664,
			"target":34962
		},
		{
			"buffer":0,
			"byteLength":27392,
			"byteOffset":205752,
			"target":34962
		},
		{
			"buffer":0,
			"byteLength":39936,
			"byteOffset":233144,
			"target":34963
		},
		{
			"buffer":0,
			"byteLength":74640,
			"byteOffset":273080,
			"target":34962
		},
		{
			"buffer":0,
			"byteLength":74640,
			"byteOffset":347720,
			"target":34962
		},
		{
			"buffer":0,
			"byteLength":49760,
			"byteOffset":422360,
			"target":34962
		},
		{
			"buffer":0,
			"byteLength":72528,
			"byteOffset":472120,
			"target":34963
		},
		{
			"buffer":0,
			"byteLength":73632,
			"byteOffset":544648,
			"target":34962
		},
		{
			"buffer":0,
			"byteLength":73632,
			"byteOffset":618280,
			"target":34962
		},
		{
			"buffer":0,
			"byteLength":49088,
			"byteOffset":691912,
			"target":34962
		},
		{
			"buffer":0,
			"byteLength":28416,
			"byteOffset":741000,
			"target":34963
		},
		{
			"buffer":0,
			"byteLength":33120,
			"byteOffset":769416,
			"target":34962
		},
		{
			"buffer":0,
			"byteLength":33120,
			"byteOffset":802536,
			"target":34962
		},
		{
			"buffer":0,
			"byteLength":22080,
			"byteOffset":835656,
			"target":34962
		},
		{
			"buffer":0,
			"byteLength":29940,
			"byteOffset":857736,
			"target":34963
		},
		{
			"buffer":0,
			"byteLength":12192,
			"byteOffset":887676,
			"target":34962
		},
		{
			"buffer":0,
			"byteLength":12192,
			"byteOffset":899868,
			"target":34962
		},
		{
			"buffer":0,
			"byteLength":8128,
			"byteOffset":912060,
			"target":34962
		},
		{
			"buffer":0,
			"byteLength":3108,
			"byteOffset":920188,
			"target":34963
		},
		{
			"buffer":0,
			"byteLength":8,
			"byteOffset":923296
		},
		{
			"buffer":0,
			"byteLength":24,
			"byteOffset":923304
		},
		{
			"buffer":0,
			"byteLength":36,
			"byteOffset":923328
		},
		{
			"buffer":0,
			"byteLength":144,
			"byteOffset":923364
		},
		{
			"buffer":0,
			"byteLength":24,
			"byteOffset":923508
		},
		{
			"buffer":0,
			"byteLength":24,
			"byteOffset":923532
		},
		{
			"buffer":0,
			"byteLength":144,
			"byteOffset":923556
		},
		{
			"buffer":0,
			"byteLength":24,
			"byteOffset":923700
		},
		{
			"buffer":0,
			"byteLength":24,
			"byteOffset":923724
		},
		{
			"buffer":0,
			"byteLength":144,
			"byteOffset":923748
		},
		{
			"buffer":0,
			"byteLength":24,
			"byteOffset":923892
		},
		{
			"buffer":0,
			"byteLength":144,
			"byteOffset":923916
		},
		{
			"buffer":0,
			"byteLength":24,
			"byteOffset":924060
		}
	],
	"buffers":[
		{
			"byteLength":924084,
			"uri":"player_animated_01.bin"
		}
	]
}
