{
	"asset":{
		"generator":"Khronos glTF Blender I/O v5.0.21",
		"version":"2.0"
	},
	"scene":0,
	"scenes":[
		{
			"name":"Scene",
			"nodes":[
				0,
				1,
				2,
				3
			]
		}
	],
	"nodes":[
		{
			"mesh":0,
			"name":"Player",
			"scale":[
				0.10000000894069672,
				0.09958413988351822,
				0.10000000894069672
			]
		},
		{
			"mesh":1,
			"name":"Button_01",
			"scale":[
				0.09987140446901321,
				0.09667931497097015,
				0.0986253172159195
			],
			"translation":[
				1.146540641784668,
				1.8386268615722656,
				2.4366493225097656
			]
		},
		{
			"mesh":2,
			"name":"Button_01.001",
			"scale":[
				0.09987140446901321,
				0.09667931497097015,
				0.0986253172159195
			],
			"translation":[
				1.146540641784668,
				1.8386268615722656,
				0.0002689361572265625
			]
		},
		{
			"mesh":3,
			"name":"Button_01.002",
			"scale":[
				0.09987140446901321,
				0.09667931497097015,
				0.0986253172159195
			],
			"translation":[
				1.146540641784668,
				1.8386268615722656,
				-2.4361114501953125
			]
		}
	],
	"meshes":[
		{
			"name":"Cube.001",
			"primitives":[
				{
					"attributes":{
						"POSITION":0,
						"NORMAL":1,
						"TEXCOORD_0":2
					},
					"indices":3
				}
			]
		},
		{
			"name":"Cube.002",
			"primitives":[
				{
					"attributes":{
						"POSITION":4,
						"NORMAL":5,
						"TEXCOORD_0":6
					},
					"indices":7
				}
			]
		},
		{
			"name":"Cube.005",
			"primitives":[
				{
					"attributes":{
						"POSITION":8,
						"NORMAL":9,
						"TEXCOORD_0":10
					},
					"indices":7
				}
			]
		},
		{
			"name":"Cube.006",
			"primitives":[
				{
					"attributes":{
						"POSITION":11,
						"NORMAL":12,
						"TEXCOORD_0":13
					},
					"indices":7
				}
			]
		}
	],
	"accessors":[
		{
			"bufferView":0,
			"componentType":5126,
			"count":90,
			"max":[
				49.999996185302734,
				40.199485778808594,
				49.999996185302734
			],
			"min":[
				-49.999996185302734,
				0.03244781494140625,
				-49.999996185302734
			],
			"type":"VEC3"
		},
		{
			"bufferView":1,
			"componentType":5126,
			"count":90,
			"type":"VEC3"
		},
		{
			"bufferView":2,
			"componentType":5126,
			"count":90,
			"type":"VEC2"
		},
		{
			"bufferView":3,
			"componentType":5123,
			"count":204,
			"type":"SCALAR"
		},
		{
			"bufferView":4,
			"componentType":5126,
			"count":24,
			"max":[
				33.04248809814453,
				12.412169456481934,
				11.66029167175293
			],
			"min":[
				-2.016753569478169e-06,
				-12.412169456481934,
				-11.66029167175293
			],
			"type":"VEC3"
		},
		{
			"bufferView":5,
			"componentType":5126,
			"count":24,
			"type":"VEC3"
		},
		{
			"bufferView":6,
			"componentType":5126,
			"count":24,
			"type":"VEC2"
		},
		{
			"bufferView":7,
			"componentType":5123,
			"count":36,
			"type":"SCALAR"
		},
		{
			"bufferView":8,
			"componentType":5126,
			"count":24,
			"max":[
				33.0424919128418,
				12.412169456481934,
				11.66029167175293
			],
			"min":[
				8.442693797405809e-07,
				-12.412169456481934,
				-11.66029167175293
			],
			"type":"VEC3"
		},
		{
			"bufferView":9,
			"componentType":5126,
			"count":24,
			"type":"VEC3"
		},
		{
			"bufferView":10,
			"componentType":5126,
			"count":24,
			"type":"VEC2"
		},
		{
			"bufferView":11,
			"componentType":5126,
			"count":24,
			"max":[
				33.0424919128418,
				12.412169456481934,
				11.660289764404297
			],
			"min":[
				8.442693797405809e-07,
				-12.412169456481934,
				-11.660289764404297
			],
			"type":"VEC3"
		},
		{
			"bufferView":12,
			"componentType":5126,
			"count":24,
			"type":"VEC3"
		},
		{
			"bufferView":13,
			"componentType":5126,
			"count":24,
			"type":"VEC2"
		}
	],
	"bufferViews":[
		{
			"buffer":0,
			"byteLength":1080,
			"byteOffset":0,
			"target":34962
		},
		{
			"buffer":0,
			"byteLength":1080,
			"byteOffset":1080,
			"target":34962
		},
		{
			"buffer":0,
			"byteLength":720,
			"byteOffset":2160,
			"target":34962
		},
		{
			"buffer":0,
			"byteLength":408,
			"byteOffset":2880,
			"target":34963
		},
		{
			"buffer":0,
			"byteLength":288,
			"byteOffset":3288,
			"target":34962
		},
		{
			"buffer":0,
			"byteLength":288,
			"byteOffset":3576,
			"target":34962
		},
		{
			"buffer":0,
			"byteLength":192,
			"byteOffset":3864,
			"target":34962
		},
		{
			"buffer":0,
			"byteLength":72,
			"byteOffset":4056,
			"target":34963
		},
		{
			"buffer":0,
			"byteLength":288,
			"byteOffset":4128,
			"target":34962
		},
		{
			"buffer":0,
			"byteLength":288,
			"byteOffset":4416,
			"target":34962
		},
		{
			"buffer":0,
			"byteLength":192,
			"byteOffset":4704,
			"target":34962
		},
		{
			"buffer":0,
			"byteLength":288,
			"byteOffset":4896,
			"target":34962
		},
		{
			"buffer":0,
			"byteLength":288,
			"byteOffset":5184,
			"target":34962
		},
		{
			"buffer":0,
			"byteLength":192,
			"byteOffset":5472,
			"target":34962
		}
	],
	"buffers":[
		{
			"byteLength":5664,
			"uri":"player.bin"
		}
	]
}
