{
	"asset":{
		"generator":"Khronos glTF Blender I/O v5.0.21",
		"version":"2.0"
	},
	"scene":0,
	"scenes":[
		{
			"name":"Scene",
			"nodes":[
				0,
				1,
				2,
				3,
				4
			]
		}
	],
	"nodes":[
		{
			"mesh":0,
			"name":"floppy",
			"scale":[
				0.4449999928474426,
				0.4649999737739563,
				0.019999999552965164
			]
		},
		{
			"mesh":1,
			"name":"metal_top",
			"scale":[
				0.21249999105930328,
				0.16499999165534973,
				0.004999999888241291
			],
			"translation":[
				0.0366695299744606,
				0.3204568326473236,
				0.06495118886232376
			]
		},
		{
			"mesh":2,
			"name":"metal cylinder",
			"rotation":[
				0.7071068286895752,
				0,
				0,
				0.7071068286895752
			],
			"scale":[
				0.880616307258606,
				0.07582803070545197,
				0.880616307258606
			],
			"translation":[
				0,
				-0.01721566915512085,
				-0.007610993459820747
			]
		},
		{
			"mesh":3,
			"name":"sticker",
			"rotation":[
				0,
				0,
				-0.006107565481215715,
				0.9999813437461853
			],
			"scale":[
				0.43525487184524536,
				0.4466756284236908,
				0.01965210773050785
			],
			"translation":[
				0,
				-0.002731786109507084,
				0.0004999999655410647
			]
		},
		{
			"mesh":4,
			"name":"metal_top.001",
			"scale":[
				0.21249999105930328,
				0.16499999165534973,
				0.004999999888241291
			],
			"translation":[
				0.0366695299744606,
				0.3204568326473236,
				0.06495118886232376
			]
		}
	],
	"materials":[
		{
			"doubleSided":true,
			"name":"Floppy_disk",
			"pbrMetallicRoughness":{
				"baseColorTexture":{
					"index":0
				},
				"metallicFactor":0.7136363387107849,
				"roughnessFactor":0.7272727489471436
			}
		},
		{
			"doubleSided":true,
			"name":"Metal_top_front",
			"pbrMetallicRoughness":{
				"baseColorTexture":{
					"index":1
				},
				"roughnessFactor":0.25
			}
		},
		{
			"doubleSided":true,
			"name":"Metal_cylinder",
			"pbrMetallicRoughness":{
				"baseColorTexture":{
					"index":2
				},
				"roughnessFactor":0.5909091234207153
			}
		},
		{
			"doubleSided":true,
			"name":"Sticker",
			"pbrMetallicRoughness":{
				"baseColorTexture":{
					"index":3
				},
				"metallicFactor":0,
				"roughnessFactor":0.6181818246841431
			}
		},
		{
			"doubleSided":true,
			"name":"Metal_top_back",
			"pbrMetallicRoughness":{
				"baseColorTexture":{
					"index":4,
					"texCoord":1
				},
				"roughnessFactor":0.25
			}
		}
	],
	"meshes":[
		{
			"name":"Cube.008",
			"primitives":[
				{
					"attributes":{
						"POSITION":0,
						"NORMAL":1,
						"TEXCOORD_0":2,
						"TEXCOORD_1":3,
						"COLOR_0":4,
						"COLOR_1":5
					},
					"indices":6,
					"material":0
				}
			]
		},
		{
			"name":"Cube.011",
			"primitives":[
				{
					"attributes":{
						"POSITION":7,
						"NORMAL":8,
						"TEXCOORD_0":9,
						"TEXCOORD_1":10,
						"COLOR_0":11,
						"COLOR_1":12
					},
					"indices":13,
					"material":1
				}
			]
		},
		{
			"name":"Cylinder.001",
			"primitives":[
				{
					"attributes":{
						"POSITION":14,
						"NORMAL":15,
						"TEXCOORD_0":16
					},
					"indices":17,
					"material":2
				}
			]
		},
		{
			"name":"Cube.003",
			"primitives":[
				{
					"attributes":{
						"POSITION":18,
						"NORMAL":19,
						"TEXCOORD_0":20
					},
					"indices":21,
					"material":3
				}
			]
		},
		{
			"name":"Cube.001",
			"primitives":[
				{
					"attributes":{
						"POSITION":22,
						"NORMAL":23,
						"TEXCOORD_0":24,
						"TEXCOORD_1":25
					},
					"indices":26,
					"material":4
				}
			]
		}
	],
	"textures":[
		{
			"sampler":0,
			"source":0
		},
		{
			"sampler":0,
			"source":1
		},
		{
			"sampler":0,
			"source":2
		},
		{
			"sampler":0,
			"source":3
		},
		{
			"sampler":0,
			"source":2
		}
	],
	"images":[
		{
			"mimeType":"image/png",
			"name":"custom_flop",
			"uri":"custom_flop.png"
		},
		{
			"mimeType":"image/png",
			"name":"metal_front",
			"uri":"metal_front.png"
		},
		{
			"mimeType":"image/png",
			"name":"metal_back",
			"uri":"metal_back.png"
		},
		{
			"mimeType":"image/png",
			"name":"vfx-sticker",
			"uri":"vfx-sticker.png"
		}
	],
	"accessors":[
		{
			"bufferView":0,
			"componentType":5126,
			"count":3130,
			"max":[
				1,
				1,
				1
			],
			"min":[
				-1,
				-1,
				-1
			],
			"type":"VEC3"
		},
		{
			"bufferView":1,
			"componentType":5126,
			"count":3130,
			"type":"VEC3"
		},
		{
			"bufferView":2,
			"componentType":5126,
			"count":3130,
			"type":"VEC2"
		},
		{
			"bufferView":3,
			"componentType":5126,
			"count":3130,
			"type":"VEC2"
		},
		{
			"bufferView":4,
			"componentType":5121,
			"count":3130,
			"normalized":true,
			"type":"VEC4"
		},
		{
			"bufferView":5,
			"componentType":5123,
			"count":3130,
			"normalized":true,
			"type":"VEC4"
		},
		{
			"bufferView":6,
			"componentType":5123,
			"count":7368,
			"type":"SCALAR"
		},
		{
			"bufferView":7,
			"componentType":5126,
			"count":224,
			"max":[
				1,
				0.8724892735481262,
				-9.324636459350586
			],
			"min":[
				-1,
				-1,
				-12.990238189697266
			],
			"type":"VEC3"
		},
		{
			"bufferView":8,
			"componentType":5126,
			"count":224,
			"type":"VEC3"
		},
		{
			"bufferView":9,
			"componentType":5126,
			"count":224,
			"type":"VEC2"
		},
		{
			"bufferView":10,
			"componentType":5126,
			"count":224,
			"type":"VEC2"
		},
		{
			"bufferView":11,
			"componentType":5121,
			"count":224,
			"normalized":true,
			"type":"VEC4"
		},
		{
			"bufferView":12,
			"componentType":5123,
			"count":224,
			"normalized":true,
			"type":"VEC4"
		},
		{
			"bufferView":13,
			"componentType":5123,
			"count":453,
			"type":"SCALAR"
		},
		{
			"bufferView":14,
			"componentType":5126,
			"count":2184,
			"max":[
				0.14999999105930328,
				0.09999999403953552,
				0.14999999105930328
			],
			"min":[
				-0.14999999105930328,
				-0.16870373487472534,
				-0.14999999105930328
			],
			"type":"VEC3"
		},
		{
			"bufferView":15,
			"componentType":5126,
			"count":2184,
			"type":"VEC3"
		},
		{
			"bufferView":16,
			"componentType":5126,
			"count":2184,
			"type":"VEC2"
		},
		{
			"bufferView":17,
			"componentType":5123,
			"count":3516,
			"type":"SCALAR"
		},
		{
			"bufferView":18,
			"componentType":5126,
			"count":20,
			"max":[
				0.8362854719161987,
				0.13053591549396515,
				0.6279793381690979
			],
			"min":[
				-0.8362854719161987,
				-1,
				0.6279793381690979
			],
			"type":"VEC3"
		},
		{
			"bufferView":19,
			"componentType":5126,
			"count":20,
			"type":"VEC3"
		},
		{
			"bufferView":20,
			"componentType":5126,
			"count":20,
			"type":"VEC2"
		},
		{
			"bufferView":21,
			"componentType":5123,
			"count":54,
			"type":"SCALAR"
		},
		{
			"bufferView":22,
			"componentType":5126,
			"count":230,
			"max":[
				1,
				0.8724892139434814,
				-12.990238189697266
			],
			"min":[
				-1,
				-1,
				-16.655839920043945
			],
			"type":"VEC3"
		},
		{
			"bufferView":23,
			"componentType":5126,
			"count":230,
			"type":"VEC3"
		},
		{
			"bufferView":24,
			"componentType":5126,
			"count":230,
			"type":"VEC2"
		},
		{
			"bufferView":25,
			"componentType":5126,
			"count":230,
			"type":"VEC2"
		},
		{
			"bufferView":26,
			"componentType":5123,
			"count":453,
			"type":"SCALAR"
		}
	],
	"bufferViews":[
		{
			"buffer":0,
			"byteLength":37560,
			"byteOffset":0,
			"target":34962
		},
		{
			"buffer":0,
			"byteLength":37560,
			"byteOffset":37560,
			"target":34962
		},
		{
			"buffer":0,
			"byteLength":25040,
			"byteOffset":75120,
			"target":34962
		},
		{
			"buffer":0,
			"byteLength":25040,
			"byteOffset":100160,
			"target":34962
		},
		{
			"buffer":0,
			"byteLength":12520,
			"byteOffset":125200,
			"target":34962
		},
		{
			"buffer":0,
			"byteLength":25040,
			"byteOffset":137720,
			"target":34962
		},
		{
			"buffer":0,
			"byteLength":14736,
			"byteOffset":162760,
			"target":34963
		},
		{
			"buffer":0,
			"byteLength":2688,
			"byteOffset":177496,
			"target":34962
		},
		{
			"buffer":0,
			"byteLength":2688,
			"byteOffset":180184,
			"target":34962
		},
		{
			"buffer":0,
			"byteLength":1792,
			"byteOffset":182872,
			"target":34962
		},
		{
			"buffer":0,
			"byteLength":1792,
			"byteOffset":184664,
			"target":34962
		},
		{
			"buffer":0,
			"byteLength":896,
			"byteOffset":186456,
			"target":34962
		},
		{
			"buffer":0,
			"byteLength":1792,
			"byteOffset":187352,
			"target":34962
		},
		{
			"buffer":0,
			"byteLength":906,
			"byteOffset":189144,
			"target":34963
		},
		{
			"buffer":0,
			"byteLength":26208,
			"byteOffset":190052,
			"target":34962
		},
		{
			"buffer":0,
			"byteLength":26208,
			"byteOffset":216260,
			"target":34962
		},
		{
			"buffer":0,
			"byteLength":17472,
			"byteOffset":242468,
			"target":34962
		},
		{
			"buffer":0,
			"byteLength":7032,
			"byteOffset":259940,
			"target":34963
		},
		{
			"buffer":0,
			"byteLength":240,
			"byteOffset":266972,
			"target":34962
		},
		{
			"buffer":0,
			"byteLength":240,
			"byteOffset":267212,
			"target":34962
		},
		{
			"buffer":0,
			"byteLength":160,
			"byteOffset":267452,
			"target":34962
		},
		{
			"buffer":0,
			"byteLength":108,
			"byteOffset":267612,
			"target":34963
		},
		{
			"buffer":0,
			"byteLength":2760,
			"byteOffset":267720,
			"target":34962
		},
		{
			"buffer":0,
			"byteLength":2760,
			"byteOffset":270480,
			"target":34962
		},
		{
			"buffer":0,
			"byteLength":1840,
			"byteOffset":273240,
			"target":34962
		},
		{
			"buffer":0,
			"byteLength":1840,
			"byteOffset":275080,
			"target":34962
		},
		{
			"buffer":0,
			"byteLength":906,
			"byteOffset":276920,
			"target":34963
		}
	],
	"samplers":[
		{
			"magFilter":9729,
			"minFilter":9987
		}
	],
	"buffers":[
		{
			"byteLength":277828,
			"uri":"floppy_disk.bin"
		}
	]
}
